<svg xmlns="http://www.w3.org/2000/svg" width="85.238" height="71.514" viewBox="0 0 85.238 71.514"><defs><style>.a{fill:#161615;}.b{fill:#fff;}</style></defs><g transform="translate(-424.691 -99.213)"><rect class="a" width="76.622" height="71.189" transform="translate(424.691 99.539)"/><path class="b" d="M466.7,183.1a9.7,9.7,0,0,1-7.086-2.878c-2.655-2.657-2.578-5.939-2.578-10.479s-.077-7.818,2.578-10.476a9.682,9.682,0,0,1,7.086-2.879c4.9,0,8.743,2.8,9.665,8.3h-5.2c-.519-2.1-1.847-3.727-4.428-3.727a4.237,4.237,0,0,0-3.283,1.366c-1,1.108-1.292,2.361-1.292,7.414s.295,6.308,1.292,7.413a4.232,4.232,0,0,0,3.283,1.368c2.581,0,3.91-1.626,4.428-3.729h5.2c-.922,5.5-4.8,8.3-9.665,8.3" transform="translate(-23.522 -31.849)"/><path class="b" d="M503.148,183.652H497.8l9.553-26.268h4.021l9.594,26.268h-5.35l-6.122-18.519Z" transform="translate(-46.231 -32.405)"/><path class="b" d="M565.571,169.989a6.069,6.069,0,0,0,3.181-5.461c-.056-4.5-3.077-7.341-8.206-7.277l-7.927.057v4.575l7.582-.055c2.169-.025,3.407,1.178,3.425,2.984s-1.179,3.036-3.354,3.065l-7.653.055v4.614l8.038-.062a3.234,3.234,0,1,1,.082,6.456l-8.12.059v4.576l8.69-.066c4.687-.055,8.011-2.753,7.952-7.662a6.1,6.1,0,0,0-3.691-5.858" transform="translate(-76.771 -32.331)"/><path class="a" d="M614.652,102.464a3.3,3.3,0,1,1,3.31,3.267,3.255,3.255,0,0,1-3.31-3.267m3.31,2.725a2.717,2.717,0,1,0-2.654-2.725,2.632,2.632,0,0,0,2.654,2.725m-.688-.837h-.57v-3.76h1.432c.888,0,1.328.328,1.328,1.069a.978.978,0,0,1-.975,1.035l1.07,1.656h-.637l-.993-1.63h-.655Zm.681-2.112c.483,0,.913-.035.913-.613,0-.465-.422-.551-.819-.551h-.775v1.164Z" transform="translate(-111.327 0)"/></g></svg>