<?xml version="1.0" encoding="UTF-8" standalone="no"?>
<!-- Created with Inkscape (http://www.inkscape.org/) -->

<svg
   xmlns:dc="http://purl.org/dc/elements/1.1/"
   xmlns:cc="http://creativecommons.org/ns#"
   xmlns:rdf="http://www.w3.org/1999/02/22-rdf-syntax-ns#"
   xmlns:svg="http://www.w3.org/2000/svg"
   xmlns="http://www.w3.org/2000/svg"
   xmlns:sodipodi="http://sodipodi.sourceforge.net/DTD/sodipodi-0.dtd"
   xmlns:inkscape="http://www.inkscape.org/namespaces/inkscape"
   id="svg2985"
   version="1.1"
   inkscape:version="0.48.5 r10040"
   width="1250"
   height="1250"
   viewBox="375 375 500 500"
   xml:space="preserve"
   sodipodi:docname="ClifftopGames_Logo.svg"
   inkscape:export-filename="C:\Users\Joel Staaf Hästö\Desktop\ClifftopGames_Logo.png"
   inkscape:export-xdpi="314.92111"
   inkscape:export-ydpi="314.92111"><metadata
     id="metadata2991"><rdf:RDF><cc:Work
         rdf:about=""><dc:format>image/svg+xml</dc:format><dc:type
           rdf:resource="http://purl.org/dc/dcmitype/StillImage" /><dc:title></dc:title></cc:Work></rdf:RDF></metadata><defs
     id="defs2989"><clipPath
       clipPathUnits="userSpaceOnUse"
       id="clipPath3001"><path
         d="m 0,1000 1000,0 L 1000,0 0,0 0,1000 z"
         id="path3003" /></clipPath></defs><sodipodi:namedview
     pagecolor="#ffffff"
     bordercolor="#666666"
     borderopacity="1"
     objecttolerance="10"
     gridtolerance="10"
     guidetolerance="10"
     inkscape:pageopacity="0"
     inkscape:pageshadow="2"
     inkscape:window-width="1600"
     inkscape:window-height="838"
     id="namedview2987"
     showgrid="false"
     inkscape:zoom="1"
     inkscape:cx="563.65569"
     inkscape:cy="663.94601"
     inkscape:window-x="-8"
     inkscape:window-y="-8"
     inkscape:window-maximized="1"
     inkscape:current-layer="g2993" /><g
     id="g2993"
     inkscape:groupmode="layer"
     inkscape:label="ClifftopGames_Logo"
     transform="matrix(1.25,0,0,-1.25,0,1250)"
     style="display:inline"><g
       id="g2997"><g
         id="g2999"
         clip-path="url(#clipPath3001)"><g
           id="g3005"
           transform="translate(493.7207,571.9194)"><path
             d="m -4.504,-6.957 -8.793,-12.514 c -4.753,-4.573 -9.627,-8.919 -12.803,-14.81 -0.074,-0.137 -0.233,-0.234 -0.363,-0.337 -1.307,-1.042 -3.121,-2.303 -4.383,-1.595 -1.957,1.1 -0.84,3.292 -0.205,4.924 1.706,4.384 4.547,7.993 7.77,11.404 5.342,5.652 10.407,11.569 16.525,16.437 1.426,1.135 2.851,2.274 4.654,2.778 0.383,0.907 1.434,1.34466667 2.432,1.47666667 M 142.463,-35.858 C 134.124,6.391 110.576,38.294 72.632,58.929 45.267,73.811 15.939,78.244 -14.837,73.284 c -6.03,-0.971 -11.883,-2.686 -17.878,-3.977 -0.598,1.606 -1.635,3.558 -0.857,4.413 l 1.101125,3.691 -2.342125,2.869 -1.433,2.587 c -1.348,2.943 -2.890429,7.474429 -3.404429,10.582429 L -41.891,100.037 -44.056714,94.054714 C -45.509714,87.800714 -47.982,82.445 -50.467,76.557 c -2.371,-5.622 -5.457,-10.978 -8.625,-16.21 -1.297,-2.14 -2.765,-4.249 -5.211,-5.754 -46.549,-28.635 -72.553,-83.493 -62.843,-139.784 3.806,-22.059 12.515,-41.924 25.941,-59.798 3.946,-5.254 5.816,-5.836 13.324,-3.96 l 5.32,1.051 c 4.532,2.067 4.905333,2.597 6.410333,4.929 3.752,5.814 6.548667,10.478 13.316667,13.63 3.727,1.735 7.213,4.589 11.65,2.89 2.44,-0.935 4.411,-0.456 6.655,0.497 4.129,1.754 8.384,1.728 12.62,0.143 1.704,-0.638 3.431,-1.235 5.185,-1.715 2.369,-0.647 4.586,0.059 5.472,2.267 1.9,4.737 5.58,5.639 10.041,5.612 2.539,-0.015 5.006,-0.291 7.302,-1.315 1.596,-0.711 3.166,-0.942 4.846,-0.69 2.675,0.4 3.946,2.206 3.571,4.911 -0.313,2.243 -1.581,3.857 -3.327,5.06 0.699,1.45 1.769,2.273 2.908,2.936 3.804,2.217 6.473,5.651 9.554,8.654 3.589,3.5 6.071,7.473 6.239,12.624 0.028,0.877 0.453,1.546 0.901,2.263 1.878,3.005 2.81,6.37 3.584,9.787 1.481,6.536 4.172,12.558 7.719,18.22 4.135,6.603 8.851,12.798 13.529,19.011 1.989,2.64 2.516,5.132 0.529,8.234 -4.121,-4.125 -7.547,-8.551 -10.58,-13.309 -3.395,-5.326 -6.813,-10.621 -10.746,-15.598 -2.338,-2.959 -5.478,-5.872 -5.849,-9.704 -0.476,-4.91 -3.198,-7.865 -6.737,-10.48 -3.391,-2.506 -6.06,-5.569 -8.405,-9.078 -3.037,-4.547 -6.761,-8.529 -11.539,-11.381 -0.909,-0.542 -1.804,-0.924 -2.76,-0.235 -4.372,3.149 -8.232,6.674 -10.038,12.035 -0.898,2.669 -0.584,5.611 1.063,7.046 3.705,3.231 5.754,7.708 9.352,10.971 3.197,2.897 6.082,6.153 8.72,9.606 1.691,2.214 2.266,4.715 0.726,6.96 -2.82,4.11 -2.087,8.303 -0.648,12.401 2.303,6.565 5.308,12.864 8.513,19.034 1.977,3.809 4.296,7.408 7.544,10.429 3.779,3.513 6.802,7.712 8.901,12.501 1.606,3.664 3.703,7.058 5.716,10.506 1.471,2.518 3.515,3.876 6.347,4.242 1.47,0.19 3.181,-0.126 4.313,0.961 1.827,1.753 3.536,1.306 5.432,0.287 1.168,-0.628 2.404,-1.145 3.64,-1.63 4.357,-1.707 4.366,-1.696 1.957,-5.633 C 50.459,8.989 49.854,7.991 49.187,7.04 45.179,1.333 41.775,-4.712 38.765,-11.003 c -1.199,-2.502 -1.411,-4.617 0.951,-7.192 1.488,2.327 2.845,4.369 4.124,6.459 4.516,7.379 9.403,14.548 15.717,20.46 4.173,3.909 8.911,7.728 15.495,5.038 0.407,-0.167 1.005,-0.137 1.42,0.033 1.913,0.781 3.393,-0.194 4.438,-1.442 3.406,-4.066 8.234,-6.21 12.491,-8.981 3.392,-2.207 3.981,-4.549 3.315,-7.88 -1.048,-5.238 -2.782,-10.358 -5.185,-15.024 -2.997,-5.821 -4.984,-12.246 -9.461,-17.283 -0.626,-0.705 -0.847,-1.775 -1.23,-2.688 -1.732,-4.123 -3.353,-8.257 -6.371,-11.738 -1.938,-2.235 -3.575,-4.807 -4.948,-7.436 -2.53,-4.842 -4.56,-9.95 -7.197,-14.727 -1.698,-3.075 -1.818,-5.944 -0.69,-9.079 0.377,-1.05 0.305,-2.383 1.865,-2.59 1.627,-0.216 2.522,0.743 3.04,2.038 1.111,2.78 2.36,5.475 3.944,8.026 4.471,7.199 8.902,14.424 13.322,21.655 0.612,1 1.183,2.005 2.162,2.701 1.174,0.834 2.412,1.164 3.7,0.309 1.102,-0.732 1.403,-1.893 1.136,-3.084 -0.327,-1.456 -0.556,-2.923 -0.831,-4.38 -1.326,-7.022 -3.145,-13.891 -7.428,-19.826 -1.659,-2.299 -3.273,-4.559 -2.365,-7.768 0.263,-0.93 -0.354,-2.354 -0.992,-3.248 -1.635,-2.282 -2.991,-5.017 -4.96,-6.758 -4.866,-4.3 -7.904,-9.915 -10.784,-15.293 -4.182,-7.812 -9.018,-15.091 -14.092,-22.277 -0.567,-0.801 -1.17,-1.708 -1.981,-2.182 -3.335,-1.949 -3.961,-5.633 -5.621,-8.621 -0.687,-1.238 -0.591,-3.607 0.914,-3.796 3.554,-0.444 7.328,-1.184 10.757,0.538 3.437,1.726 6.381,4.202 9.164,6.864 1.051,1.005 1.401,2.107 1.45,3.531 0.244,7.108 3.708,12.851 7.509,18.627 4.724,7.183 10.519,13.717 13.747,22.192 0.708,-0.755 1.266,-1.299 1.763,-1.893 0.553,-0.663 1.265,-0.948 2.058,-1.269 2.864,-1.16 3.503,-2.39 3.116,-5.628 -0.417,-3.483 -1.312,-6.88 -2.67,-10.085 -1.051,-2.48 -1.128,-4.361 0.553,-6.757 3.847,-5.477 5.904,-11.8 7.201,-18.333 0.721,-3.64 1.674,-7.12 4.144,-10.015 0.76,-0.892 1.467,-1.737 2.721,-2.032 6.982,-1.64 12.626,1.337 14.934,8.217 0.763,2.272 1.99,4.177 3.251,6.128 20.202,31.207 27.272,65.309 20.102,101.634"
             style="fill:#000000;fill-opacity:1;fill-rule:evenodd;stroke:none"
             id="path3007"
             inkscape:connector-curvature="0"
             sodipodi:nodetypes="cccccccccccsccccccccccccccccccccccccccccccccccccsccccccccccccccccccccsccccccccccccccccccccccccccccccccccsccccccccccccccc" /></g><g
           id="g3009"
           transform="translate(464.7422,634.8281)"><path
             d="m 0,0 c 2.787,1.652 5.771,1.937 8.62,2.577 10.702,2.406 21.536,4.145 32.517,3.468 27.798,-1.714 53.188,-10.391 75.588,-27.182 24.849,-18.627 39.583,-43.828 47.136,-73.517 2.784,-10.937 4.515,-22.126 3.912,-33.453 -1.262,-23.734 -7.61,-46.026 -20.314,-66.235 -2.442,-3.885 -5.242,-8.06 -10.762,-8.659 -2.342,-0.254 -3.849,-0.033 -4.637,2.07 -0.691,1.841 -0.851,3.878 -1.498,5.741 -1.4,4.034 -3.061,7.978 -4.432,12.021 -1.805,5.322 -1.536,10.84 -0.711,16.251 0.697,4.577 1.182,8.853 -2.46,12.528 -0.906,0.916 -1.489,2.199 -2.061,3.39 -1.482,3.091 -1.86,6.061 -0.079,9.375 3.976,7.395 4.666,15.286 3.424,23.598 -0.717,4.798 -1.506,9.458 -3.695,13.795 -0.501,0.993 -0.609,1.799 0.006,2.769 0.798,1.258 1.306,2.727 2.229,3.873 3.68,4.572 5.632,10.06 8.269,15.186 1.158,2.252 1.521,4.441 1.124,7.083 -0.54,3.589 -0.243,7.308 -0.251,10.972 -0.01,4.378 -1.002,8.481 -2.771,12.508 -1.235,2.813 -2.948,4.658 -5.946,5.392 -1.596,0.39 -3.104,1.125 -4.693,1.553 -1.028,0.277 -1.955,0.65 -2.327,1.654 -1.589,4.289 -5.349,7.059 -7.546,10.909 -0.794,1.392 -1.99,1.481 -3.385,1.554 -8.339,0.433 -16.09,-1.22 -22.977,-6.174 -2.108,-1.516 -4.209,-2.139 -6.955,-1.151 -4.438,1.596 -9.616,0.656 -13.649,3.826 -2.702,-0.573 -5.61,-0.337 -7.935,-2.325 -5.359,-4.58 -12.126,-6.713 -18.075,-10.273 -2.502,-1.497 -5.479,-0.954 -8.199,-1.763 -3.445,-1.025 -6.090333,1.019333 -9.662333,0.381333 -2.469,-0.44 -5.335334,0.717334 -7.089334,2.124334 -3.5979997,2.886 -6.9616187,3.293333 -9.4126187,7.309333 l -0.58057144,2.419643 3.07657144,1.048214 c 3.821,-0.109 5.7304286,1.569429 9.4544287,2.445429 l 5.650087,3.460952 -5.192516,2.233048 C 8.9627173,-23.569097 5.6096447,-22.815789 2.744,-18.309 L 2.1635714,-16.784429 4.326,-15.717 c 1.668,-0.175 2.805,0.957 4.3,0.956 l 2.728,1.547778 L 8.6771111,-11.202 C 2.9661969,-8.0100187 2.6188324,-5.0684147 0,0"
             style="fill:#d36a1d;fill-opacity:1;fill-rule:evenodd;stroke:none"
             id="path3011"
             inkscape:connector-curvature="0"
             sodipodi:nodetypes="ccssccccccccccccccccccccccccccccccccccccccccccccc" /></g><g
           id="g3013"
           transform="translate(435.5635,622.5645)"><path
             d="m 0,0 c -1.399,-4.038 -3.102,-6.578 -5.886,-7.827 l -6.622,-5.772 -4.404804,-3.127964 5.063947,-3.650036 c 2.8703944,-2.068948 3.9822856,-3.765429 8.5999999,-5.202 -1.478,-3.13 -3.1565715,-5.364714 -5.7545715,-7.313714 L -15.954,-38.793 c -1.504,-1.95 -1.63,-2.185 -3.883,-3.426 -0.999,-0.551 -1.918,-1.368 -2.654,-2.249 L -26.266482,-47.165161 -21.122,-50.423 c 3.122247,-4.048609 8.39654,-3.101136 12.624,-4.311 l -1.604,-2.835 -5.649,-5.378 c -2.353,-3.708 -5.186,-6.82 -8.619,-9.485 -0.906,-0.704 -1.68,-1.62 -2.377,-2.543 l -2.829,-2.099268 6.24,-3.252303 c 3.229836,-2.70011 20.9472968,-2.171687 21.538,-2.796429 l 1.131,-5.346 c -2.275,-6.143 -4.836,-12.172 -6.703,-18.507 -1.565,-5.308 -4.9,-10.117 -7.615,-15.056 -2.236,-4.065 -4.7,-8.005 -7.088,-11.985 -2.49,-4.149 -4.233,-8.541 -5.269,-13.312 -1.33,-6.125 -2.981,-12.192 -4.771,-18.202 -1.993,-6.698 -2.505,-13.631 -3.732,-20.448 -0.234,-1.302 0.682,-3.145 -1.619,-3.568 -2.1,-0.387 -2.838,1.049 -3.817,2.471 -4.253,6.173 -7.906,12.677 -11.043,19.473 -5.939,12.866 -9.534,26.408 -11.544,40.394 -2.35,16.352 -0.348,32.363 3.873,48.192 6.348,23.797 18.224,44.424 35.883,61.577 C -17.219,-10.745 -9.363,-5.198 0,0"
             style="fill:#d36a1d;fill-opacity:1;fill-rule:evenodd;stroke:none"
             id="path3015"
             inkscape:connector-curvature="0"
             sodipodi:nodetypes="ccccscccccccccccccccccccsccccssccc" /></g><g
           id="g3017"
           transform="translate(419.2314,380.8496)"><path
             d="m 0,0 c 2.661,0 5.204,0.606 7.628,1.818 l 0,9.946 C 5.542,10.338 3.527,9.625 1.583,9.625 c -2.322,0 -4.242,0.748 -5.76,2.245 -1.517,1.497 -2.275,3.409 -2.275,5.739 0,2.328 0.758,4.242 2.275,5.739 1.518,1.497 3.438,2.246 5.76,2.246 1.967,0 3.982,-0.726 6.045,-2.175 l 0,9.944 C 5.251,34.599 2.709,35.217 0,35.217 c -6.036,0 -10.824,-2.044 -14.364,-6.131 -2.852,-3.279 -4.278,-7.106 -4.278,-11.477 0,-4.349 1.426,-8.175 4.278,-11.478 C -10.824,2.044 -6.036,0 0,0"
             style="fill:#000000;fill-opacity:1;fill-rule:nonzero;stroke:none"
             id="path3019"
             inkscape:connector-curvature="0" /></g><path
           d="m 442.252,435.493 -11.727,0 0,-53.538 11.727,0 0,53.538 z"
           style="fill:#000000;fill-opacity:1;fill-rule:nonzero;stroke:none"
           id="path3021"
           inkscape:connector-curvature="0" /><g
           id="g3023"
           transform="translate(452.0293,421.1641)"><path
             d="m 0,0 c 1.848,0 3.406,0.634 4.674,1.901 1.267,1.268 1.902,2.827 1.902,4.675 0,1.825 -0.64,3.371 -1.92,4.639 -1.28,1.267 -2.832,1.902 -4.656,1.902 -1.826,0 -3.373,-0.635 -4.641,-1.902 -1.267,-1.268 -1.9,-2.814 -1.9,-4.639 0,-1.825 0.633,-3.377 1.9,-4.657 C -3.373,0.64 -1.826,0 0,0"
             style="fill:#000000;fill-opacity:1;fill-rule:nonzero;stroke:none"
             id="path3025"
             inkscape:connector-curvature="0" /></g><g
           id="g3027"
           transform="translate(484.6582,405.4092)"><path
             d="m 0,0 0,-23.454 11.729,0 0,23.454 9.316,0.036 0,-23.49 11.728,0 0,23.49 6.665,0 0,9.588 -6.665,0 0,9.945 -11.728,0 0,-9.945 -9.316,0 0,3.577 c 0,2.718 0.212,4.422 0.638,5.114 0.733,1.216 1.893,1.825 3.479,1.825 1.134,0 2.496,-0.441 4.08,-1.32 l 0,10.163 C 18.191,29.788 16.469,30.19 14.758,30.19 10.457,30.19 6.773,28.552 3.707,25.272 1.236,22.634 0,18.879 0,14.009 l 0,-4.385 -10.383,0 0,3.577 c 0,2.718 0.213,4.422 0.639,5.114 0.732,1.216 1.892,1.825 3.478,1.825 1.135,0 2.496,-0.441 4.08,-1.32 l 0,10.163 c -1.734,0.805 -3.457,1.207 -5.168,1.207 -4.3,0 -7.984,-1.638 -11.049,-4.918 -2.472,-2.638 -3.707,-6.393 -3.707,-11.263 l 0,-4.385 -16.383,0 0,-33.078 11.727,0 0,23.454 4.656,0 0,-23.454 11.727,0 0,23.454 L 0,0 z"
             style="fill:#000000;fill-opacity:1;fill-rule:nonzero;stroke:none"
             id="path3029"
             inkscape:connector-curvature="0" /></g><g
           id="g3031"
           transform="translate(537.126,403.4717)"><path
             d="m 0,0 c 1.514,1.814 3.477,2.722 5.89,2.722 2.129,0 3.943,-0.746 5.446,-2.239 1.502,-1.492 2.253,-3.312 2.253,-5.461 0,-2.172 -0.745,-4.004 -2.235,-5.497 -1.491,-1.492 -3.312,-2.237 -5.464,-2.237 -2.413,0 -4.376,0.907 -5.89,2.722 -1.23,1.455 -1.846,3.127 -1.846,5.012 0,1.863 0.616,3.522 1.846,4.978 m -9.509,-16.776 c 3.659,-3.993 8.792,-5.989 15.399,-5.989 6.582,0 11.703,1.996 15.362,5.989 3.018,3.279 4.527,7.212 4.527,11.798 0,4.539 -1.521,8.448 -4.562,11.727 -3.732,4.016 -8.722,6.024 -14.971,6.024 -6.797,0 -12.036,-2.008 -15.719,-6.024 -3.043,-3.327 -4.562,-7.141 -4.562,-11.441 0,-4.777 1.508,-8.805 4.526,-12.084"
             style="fill:#000000;fill-opacity:1;fill-rule:nonzero;stroke:none"
             id="path3033"
             inkscape:connector-curvature="0" /></g><g
           id="g3035"
           transform="translate(576.8428,398.4766)"><path
             d="m 0,0 c 0,2.119 0.727,3.905 2.181,5.358 1.455,1.454 3.234,2.181 5.34,2.181 2.341,0 4.256,-0.882 5.747,-2.644 C 14.45,3.513 15.041,1.881 15.041,0 c 0,-1.835 -0.603,-3.466 -1.809,-4.896 -1.466,-1.762 -3.37,-2.643 -5.711,-2.643 -2.082,0 -3.856,0.732 -5.322,2.197 C 0.732,-3.877 0,-2.097 0,0 m -23.883,-31.991 c 0.26,1.598 0.875,2.87 1.844,3.815 1.229,1.188 2.837,1.781 4.822,1.781 3.593,0 5.803,-1.866 6.63,-5.596 l -13.296,0 z m 34.527,14.4 c 4.034,0 7.606,1.341 10.714,4.025 3.915,3.37 5.874,7.879 5.874,13.53 0,5.556 -1.911,10.017 -5.731,13.39 -3.204,2.824 -6.858,4.236 -10.964,4.236 -2.54,0 -4.806,-0.559 -6.8,-1.675 C 2.527,15.249 1.399,14.228 0.355,12.85 l 0,3.707 -11.726,0 0,-36.391 c -1.892,0.542 -3.992,0.817 -6.309,0.817 -5.845,0 -10.373,-1.652 -13.581,-4.954 -3.208,-3.303 -4.811,-7.592 -4.811,-12.868 0,-4.444 1.283,-8.211 3.849,-11.3 3.422,-4.134 8.531,-6.201 15.327,-6.201 5.347,0 9.612,1.48 12.796,4.442 1.758,1.633 3.089,3.943 3.993,6.928 l -11.335,0 c -1.3,-2.092 -3.167,-3.136 -5.601,-3.136 -4.773,0 -7.16,2.482 -7.16,7.45 l 24.558,0 0,1.499 0,23.88 c 1.258,-1.308 2.481,-2.246 3.667,-2.817 2.065,-0.998 4.272,-1.497 6.622,-1.497"
             style="fill:#000000;fill-opacity:1;fill-rule:nonzero;stroke:none"
             id="path3037"
             inkscape:connector-curvature="0" /></g><g
           id="g3039"
           transform="translate(424.6035,356.665)"><path
             d="m 0,0 c -1.454,-1.509 -3.223,-2.263 -5.303,-2.263 -2.105,0 -3.885,0.754 -5.34,2.263 -1.454,1.509 -2.181,3.32 -2.181,5.437 0,1.9 0.592,3.575 1.774,5.025 1.489,1.806 3.405,2.709 5.747,2.709 2.105,0 3.879,-0.761 5.322,-2.281 C 1.461,9.368 2.183,7.551 2.183,5.437 2.183,3.32 1.455,1.509 0,0 m 1.612,18.411 c -1.211,1.354 -2.374,2.328 -3.489,2.922 -1.874,0.975 -4.01,1.462 -6.406,1.462 -4.51,0 -8.365,-1.581 -11.57,-4.741 -3.441,-3.399 -5.161,-7.806 -5.161,-13.224 0,-2.448 0.403,-4.718 1.21,-6.808 1.187,-3.089 3.145,-5.525 5.874,-7.307 2.658,-1.736 5.671,-2.603 9.041,-2.603 2.682,0 5.008,0.548 6.977,1.641 0.949,0.521 2.124,1.426 3.524,2.709 l 0,-3.127 c 0,-2.25 -0.452,-3.98 -1.354,-5.188 -1.449,-1.918 -3.529,-2.878 -6.238,-2.878 -1.616,0 -2.947,0.388 -3.993,1.165 -0.64,0.47 -1.152,1.247 -1.532,2.329 l -13.117,0 c 0.118,-0.761 0.214,-1.26 0.285,-1.498 0.642,-2.257 2.126,-4.42 4.456,-6.487 3.492,-3.113 8.186,-4.67 14.079,-4.67 5.632,0 10.147,1.426 13.545,4.278 2.685,2.258 4.349,4.812 4.99,7.664 0.404,1.781 0.607,4.123 0.607,7.021 l 0,30.797 -11.728,0 0,-3.457 z"
             style="fill:#000000;fill-opacity:1;fill-rule:nonzero;stroke:none"
             id="path3041"
             inkscape:connector-curvature="0" /></g><g
           id="g3043"
           transform="translate(465.2988,356.6729)"><path
             d="m 0,0 c -1.455,-1.442 -3.234,-2.164 -5.34,-2.164 -2.341,0 -4.245,0.875 -5.711,2.625 -1.207,1.419 -1.809,3.039 -1.809,4.86 0,1.822 0.602,3.441 1.809,4.861 1.49,1.749 3.394,2.625 5.711,2.625 2.081,0 3.856,-0.728 5.322,-2.182 C 1.448,9.17 2.182,7.402 2.182,5.321 2.182,3.216 1.454,1.442 0,0 m 1.825,18.616 c -1.259,1.307 -2.479,2.246 -3.667,2.817 -2.064,0.973 -4.271,1.461 -6.62,1.461 -4.034,0 -7.606,-1.341 -10.716,-4.024 -3.916,-3.371 -5.873,-7.881 -5.873,-13.531 0,-5.555 1.91,-10.019 5.731,-13.389 3.204,-2.825 6.859,-4.237 10.965,-4.237 2.539,0 4.804,0.558 6.798,1.675 1.139,0.642 2.266,1.663 3.382,3.066 l 0,-3.672 11.728,0 0,33.078 -11.728,0 0,-3.244 z"
             style="fill:#000000;fill-opacity:1;fill-rule:nonzero;stroke:none"
             id="path3045"
             inkscape:connector-curvature="0" /></g><g
           id="g3047"
           transform="translate(533.9004,377.3213)"><path
             d="m 0,0 c -1.928,1.187 -4.129,1.782 -6.604,1.782 -3.023,0 -5.712,-0.903 -8.069,-2.709 -1.118,-0.855 -2.13,-2.02 -3.034,-3.493 -1,1.568 -2.047,2.78 -3.143,3.636 -2.166,1.686 -4.879,2.531 -8.14,2.531 -2.547,0 -4.856,-0.56 -6.926,-1.676 -1.143,-0.618 -2.404,-1.592 -3.784,-2.923 l 0,4.064 -11.728,0 0,-33.078 11.728,0 0,16.337 c 0,1.59 0.083,2.841 0.249,3.755 0.166,0.913 0.439,1.63 0.82,2.153 1.022,1.472 2.447,2.207 4.277,2.207 1.973,0 3.434,-0.855 4.385,-2.563 0.475,-0.854 0.713,-2.706 0.713,-5.552 l 0,-16.337 11.727,0 0,16.337 c 0,2.562 0.368,4.437 1.105,5.624 1.045,1.684 2.542,2.527 4.49,2.527 1.758,0 3.079,-0.771 3.957,-2.314 0.594,-1.044 0.891,-2.991 0.891,-5.837 l 0,-16.337 11.727,0 0,21.494 c 0,2.018 -0.19,3.707 -0.571,5.06 C 3.428,-3.078 2.072,-1.308 0,0"
             style="fill:#000000;fill-opacity:1;fill-rule:nonzero;stroke:none"
             id="path3049"
             inkscape:connector-curvature="0" /></g><g
           id="g3051"
           transform="translate(603.626,363.4551)"><path
             d="m 0,0 c -1.446,1.402 -3.699,2.424 -6.757,3.066 -2.086,0.428 -3.342,0.748 -3.768,0.962 -0.949,0.455 -1.422,1.055 -1.422,1.797 0,1.63 1.171,2.445 3.515,2.445 1.989,0 4.072,-0.571 6.25,-1.711 l 3.957,7.556 c -3.469,1.426 -7.046,2.139 -10.728,2.139 -5.3,0 -9.221,-1.388 -11.764,-4.163 -1.972,-2.158 -2.958,-4.686 -2.958,-7.579 0,-1.495 0.225,-2.776 0.676,-3.844 0.83,-1.969 2.43,-3.416 4.8,-4.341 0.664,-0.261 2.074,-0.629 4.232,-1.102 1.919,-0.428 3.153,-0.797 3.697,-1.106 0.854,-0.475 1.281,-1.153 1.281,-2.031 0,-1.689 -1.221,-2.531 -3.661,-2.531 -2.869,0 -5.973,1.092 -9.314,3.279 l -4.241,-8.27 c 4.277,-2.543 8.684,-3.814 13.224,-3.814 5.132,0 9.112,1.26 11.94,3.779 2.519,2.233 3.779,5.109 3.779,8.625 C 2.738,-4.04 1.825,-1.759 0,0"
             style="fill:#000000;fill-opacity:1;fill-rule:nonzero;stroke:none"
             id="path3053"
             inkscape:connector-curvature="0" /></g></g></g></g></svg>