<svg xmlns="http://www.w3.org/2000/svg" width="150" height="120" viewBox="0 0 120.96 36.06"><g id="aa6322e9-dbdb-4254-a7ab-2c3f009676a1" data-name="Lager 2"><g id="e5d51433-1f14-4928-a67d-b8fcc4004bef" data-name="menu-mobile-pubq"><g id="bb69ea9f-187f-4c2f-b783-90315e83468e" data-name="PubQ RGB"><path id="a8c13457-a68d-4453-8972-c48a3fc51d50" data-name="Path 1" d="M92.16,7.26H110V21.17l-3.29-3.29-3.94,3.94,3.29,3.29H92.16ZM84.9,0V32.36h28.42l3.7,3.7L121,32.13l-3.7-3.7V0Z" style="fill:#00ffa2"/><path id="bae0da5b-5c2c-49fd-b9c4-0214a9ff70ab" data-name="Path 2" d="M11,0H0V32.08H7.25V21.19h4c6.8,0,12.55-3.33,12.55-10.87C23.77,2.52,18.08,0,11,0m-.23,15.43H7.25V5.76h3.34c3.92,0,6.07,1.2,6.07,4.56s-1.88,5.12-5.87,5.12" style="fill:#00ffa2"/><path id="bb86d70e-48b6-48aa-98f9-c4676523393d" data-name="Path 3" d="M45.33,18c0,6.28-2.07,8.45-5.68,8.45S34.08,24.24,34.08,18V0H26.83V17.21c0,10.77,4.52,15.46,12.82,15.46S52.32,28,52.32,17.21V0h-7Z" style="fill:#00ffa2"/><path id="b2bf185d-4ae7-4050-9272-efbc3d192549" data-name="Path 4" d="M75.56,15.08v-.2c2.61-1,4.22-4.05,4.22-6.93C79.78,1.83,74.61,0,68,0H57V32.08h11.9c7,0,12.49-2.93,12.49-9.45a7.3,7.3,0,0,0-5.8-7.55M64.23,5.59h3.44c3.38,0,5,1,5,3.44s-1.55,3.82-5.07,3.82H64.23Zm4,20.89h-4V18.2h4c4,0,6,1.14,6,4s-2,4.32-6,4.32" style="fill:#00ffa2"/></g></g></g></svg>